<svg xmlns="http://www.w3.org/2000/svg" viewBox="0 0 960 720" role="img" aria-labelledby="title desc">
  <title id="title">Yangdong heritage route map placeholder</title>
  <desc id="desc">A stylized terrain map with a spatial walk route.</desc>
  <defs>
    <linearGradient id="bg" x1="0" y1="0" x2="1" y2="1">
      <stop stop-color="#263b2e"/>
      <stop offset=".7" stop-color="#151914"/>
    </linearGradient>
    <linearGradient id="route" x1=".1" y1=".8" x2=".9" y2=".2">
      <stop stop-color="#d8ad5b"/>
      <stop offset=".55" stop-color="#78d6f4"/>
      <stop offset="1" stop-color="#c86a50"/>
    </linearGradient>
  </defs>
  <rect width="960" height="720" fill="url(#bg)"/>
  <g fill="none" stroke="#f6f0e6" stroke-opacity=".12">
    <path d="M-40 210c132-74 255-76 366-8s214 58 315-22 231-97 380-21"/>
    <path d="M-40 286c132-74 255-76 366-8s214 58 315-22 231-97 380-21"/>
    <path d="M-40 362c132-74 255-76 366-8s214 58 315-22 231-97 380-21"/>
    <path d="M-40 438c132-74 255-76 366-8s214 58 315-22 231-97 380-21"/>
    <path d="M-40 514c132-74 255-76 366-8s214 58 315-22 231-97 380-21"/>
  </g>
  <path d="M105 590c64-122 166-184 308-184 160 0 232-76 286-196 35-76 82-119 152-139" fill="none" stroke="#10110f" stroke-opacity=".68" stroke-width="16" stroke-linecap="round"/>
  <path d="M105 590c64-122 166-184 308-184 160 0 232-76 286-196 35-76 82-119 152-139" fill="none" stroke="url(#route)" stroke-width="7" stroke-linecap="round"/>
  <g fill="#d8ad5b">
    <circle cx="105" cy="590" r="12"/>
    <circle cx="413" cy="406" r="12"/>
    <circle cx="699" cy="210" r="12"/>
    <circle cx="851" cy="71" r="12"/>
  </g>
  <g fill="#d7b982" opacity=".9">
    <path d="M188 429h86l-43-31Z"/>
    <rect x="203" y="429" width="56" height="34"/>
    <path d="M520 322h100l-50-36Z"/>
    <rect x="538" y="322" width="64" height="42"/>
    <path d="M682 488h118l-59-42Z"/>
    <rect x="704" y="488" width="74" height="48"/>
  </g>
  <circle cx="738" cy="252" r="132" fill="none" stroke="#78d6f4" stroke-opacity=".25" stroke-width="2"/>
  <circle cx="738" cy="252" r="82" fill="none" stroke="#78d6f4" stroke-opacity=".32" stroke-width="2"/>
</svg>
