<svg xmlns="http://www.w3.org/2000/svg" viewBox="0 0 1100 720" role="img" aria-labelledby="title desc">
  <title id="title">Shared gallery placeholder</title>
  <desc id="desc">A spatial gallery wall with participant frames.</desc>
  <defs>
    <linearGradient id="bg" x1="0" y1="0" x2="1" y2="1">
      <stop stop-color="#141812"/>
      <stop offset=".55" stop-color="#26352b"/>
      <stop offset="1" stop-color="#16110f"/>
    </linearGradient>
  </defs>
  <rect width="1100" height="720" fill="url(#bg)"/>
  <g transform="translate(90 116)">
    <rect width="276" height="196" rx="8" fill="#f6f0e6" opacity=".12" stroke="#f6f0e6" stroke-opacity=".25"/>
    <path d="M24 152 100 86l55 45 34-30 63 51Z" fill="#d8ad5b" opacity=".8"/>
    <circle cx="218" cy="54" r="22" fill="#78d6f4" opacity=".8"/>
  </g>
  <g transform="translate(412 84)">
    <rect width="276" height="196" rx="8" fill="#f6f0e6" opacity=".12" stroke="#f6f0e6" stroke-opacity=".25"/>
    <path d="M28 150 128 64l48 58 32-24 44 52Z" fill="#96c5ad" opacity=".8"/>
    <circle cx="62" cy="58" r="20" fill="#d8ad5b" opacity=".86"/>
  </g>
  <g transform="translate(734 138)">
    <rect width="276" height="196" rx="8" fill="#f6f0e6" opacity=".12" stroke="#f6f0e6" stroke-opacity=".25"/>
    <path d="M28 150 96 92l64 48 36-38 54 48Z" fill="#c86a50" opacity=".82"/>
    <circle cx="222" cy="62" r="20" fill="#78d6f4" opacity=".86"/>
  </g>
  <g fill="none" stroke="#78d6f4" stroke-opacity=".24">
    <path d="M228 214c126 122 318 134 462 6s264-106 340-16"/>
    <path d="M214 472c172-88 324-92 456 12 116 90 236 78 350-4"/>
  </g>
  <text x="84" y="628" fill="#f6f0e6" font-family="system-ui, sans-serif" font-size="34" font-weight="800">public/assets/shared-gallery-cover.jpg</text>
</svg>
