<svg xmlns="http://www.w3.org/2000/svg" viewBox="0 0 1600 1000" role="img" aria-labelledby="title desc">
  <title id="title">Yangdong Village spatial hero placeholder</title>
  <desc id="desc">Layered hills, hanok roofs, village paths, and spatial computing rings.</desc>
  <defs>
    <linearGradient id="sky" x1="0" y1="0" x2="1" y2="1">
      <stop stop-color="#17211a"/>
      <stop offset=".5" stop-color="#1f2e24"/>
      <stop offset="1" stop-color="#0e1110"/>
    </linearGradient>
    <linearGradient id="field" x1="0" y1=".15" x2="1" y2="1">
      <stop stop-color="#6f865c"/>
      <stop offset=".62" stop-color="#2e4b37"/>
      <stop offset="1" stop-color="#171812"/>
    </linearGradient>
    <linearGradient id="ring" x1="0" y1="0" x2="1" y2="1">
      <stop stop-color="#78d6f4"/>
      <stop offset=".55" stop-color="#d8ad5b"/>
      <stop offset="1" stop-color="#c86a50"/>
    </linearGradient>
    <filter id="glow">
      <feGaussianBlur stdDeviation="8" result="blur"/>
      <feMerge>
        <feMergeNode in="blur"/>
        <feMergeNode in="SourceGraphic"/>
      </feMerge>
    </filter>
  </defs>
  <rect width="1600" height="1000" fill="url(#sky)"/>
  <circle cx="1230" cy="210" r="180" fill="#78d6f4" opacity=".1"/>
  <circle cx="1135" cy="245" r="330" fill="none" stroke="#f6f0e6" stroke-opacity=".16" stroke-width="2"/>
  <circle cx="1135" cy="245" r="235" fill="none" stroke="#78d6f4" stroke-opacity=".28" stroke-width="2"/>
  <circle cx="1135" cy="245" r="125" fill="none" stroke="#d8ad5b" stroke-opacity=".24" stroke-width="2"/>
  <path d="M0 470c160-130 289-139 424-54 118 75 216 48 330-20 138-82 249-81 394 29 136 103 262 84 452 2v573H0Z" fill="#263a2c"/>
  <path d="M0 612c150-89 288-104 420-39 127 63 245 39 376-37 142-83 278-64 430 43 112 79 226 92 374 14v407H0Z" fill="url(#field)"/>
  <path d="M0 742c187-65 332-74 479-22 154 54 291 51 457-20 197-83 377-43 664 55v245H0Z" fill="#1b241c"/>
  <g opacity=".92">
    <path d="M185 612h240l-120-72Z" fill="#5b3423"/>
    <path d="M216 612h178v91H216z" fill="#d7b982"/>
    <path d="M235 636h48v67h-48zM326 636h48v67h-48z" fill="#382a21"/>
    <path d="M514 655h258l-129-82Z" fill="#6b3b28"/>
    <path d="M550 655h186v96H550z" fill="#cba76f"/>
    <path d="M570 684h48v67h-48zM667 684h46v67h-46z" fill="#34261f"/>
    <path d="M872 597h310l-155-94Z" fill="#683825"/>
    <path d="M916 597h220v118H916z" fill="#d9bd86"/>
    <path d="M941 633h58v82h-58zM1051 633h58v82h-58z" fill="#33251e"/>
  </g>
  <path d="M84 1000c110-196 282-287 516-274 269 15 452-72 612-244" fill="none" stroke="#d8ad5b" stroke-opacity=".5" stroke-width="8"/>
  <path d="M83 1000c110-196 282-287 516-274 269 15 452-72 612-244" fill="none" stroke="#10110f" stroke-opacity=".72" stroke-width="2"/>
  <g filter="url(#glow)" opacity=".82">
    <ellipse cx="1086" cy="452" rx="330" ry="86" fill="none" stroke="url(#ring)" stroke-width="4" transform="rotate(-18 1086 452)"/>
    <ellipse cx="1086" cy="452" rx="245" ry="62" fill="none" stroke="#78d6f4" stroke-opacity=".62" stroke-width="3" transform="rotate(22 1086 452)"/>
    <circle cx="1210" cy="367" r="8" fill="#78d6f4"/>
    <circle cx="878" cy="528" r="6" fill="#d8ad5b"/>
  </g>
  <rect width="1600" height="1000" fill="#10110f" opacity=".08"/>
</svg>
